# xmcd
#
# Track frame offsets: 
#        150
#        21925
#        39423
#        64852
#        91298
#        110997
#        126499
#        155048
#        181448
#
# Disc length: 2693 seconds
#
# Revision: 0
# Processed by: cddbd v1.5.2PL0 Copyright (c) Steve Scherf et al.
# Submitted via: ExactAudioCopy v1.0b3
#
DISCID=810a8309
DTITLE=Brian Young - Bluesland
DYEAR=2013
DGENRE=Blues
TTITLE0=Heaven Knows
TTITLE1=Don't Stop
TTITLE2=I Ain't Drunk
TTITLE3=Joy To See
TTITLE4=The Groove
TTITLE5=Bluesland (Interlude)
TTITLE6=Bluesland
TTITLE7=Dynamite
TTITLE8=Jumping Through The Hoops
EXTD=
EXTT0=
EXTT1=
EXTT2=
EXTT3=
EXTT4=
EXTT5=
EXTT6=
EXTT7=
EXTT8=
PLAYORDER=
